HIERARCHY
ROOT Hips
{
	OFFSET 0.000000 0.000000 0.000000
	CHANNELS 6 Xposition Yposition Zposition Xrotation Yrotation Zrotation
	JOINT LeftUpLeg_virtual
	{
		OFFSET 0.000000 0.000000 0.000000
		CHANNELS 3 Xrotation Yrotation Zrotation
		JOINT LeftUpLeg
		{
			OFFSET 13.026900 -6.336304 -1.092800
			CHANNELS 3 Xrotation Yrotation Zrotation
			JOINT LeftLeg
			{
				OFFSET 0.524474 -46.096886 9.782700
				CHANNELS 3 Xrotation Yrotation Zrotation
				JOINT LeftFoot
				{
					OFFSET -0.524474 -53.427422 -12.948200
					CHANNELS 3 Xrotation Yrotation Zrotation
					JOINT LeftToeBase
					{
						OFFSET 0.192200 -14.009700 16.364100
						CHANNELS 3 Xrotation Yrotation Zrotation
						JOINT LeftToe_End
						{
							OFFSET -1.784700 -0.561700 9.474800
							CHANNELS 3 Xrotation Yrotation Zrotation
							End Site
							{
								OFFSET 0 0 0
							}
						}
					}
				}
			}
		}
	}
	JOINT RightUpLeg_virtual
	{
		OFFSET 0.000000 0.000000 0.000000
		CHANNELS 3 Xrotation Yrotation Zrotation
		JOINT RightUpLeg
		{
			OFFSET -12.883000 -6.336304 -1.092800
			CHANNELS 3 Xrotation Yrotation Zrotation
			JOINT RightLeg
			{
				OFFSET -0.524587 -46.096825 9.782800
				CHANNELS 3 Xrotation Yrotation Zrotation
				JOINT RightFoot
				{
					OFFSET 0.524587 -53.427383 -12.948300
					CHANNELS 3 Xrotation Yrotation Zrotation
					JOINT RightToeBase
					{
						OFFSET -0.192200 -14.009700 16.364100
						CHANNELS 3 Xrotation Yrotation Zrotation
						JOINT RightToe_End
						{
							OFFSET 1.784700 -0.561700 9.474800
							CHANNELS 3 Xrotation Yrotation Zrotation
							End Site
							{
								OFFSET 0 0 0
							}
						}
					}
				}
			}
		}
	}
	JOINT Spine_virtual
	{
		OFFSET 0.000000 0.000000 0.000000
		CHANNELS 3 Xrotation Yrotation Zrotation
		JOINT Spine
		{
			OFFSET 0.072000 7.257294 -0.789700
			CHANNELS 3 Xrotation Yrotation Zrotation
			JOINT Spine1
			{
				OFFSET 0.000000 12.508769 -0.658067
				CHANNELS 3 Xrotation Yrotation Zrotation
				JOINT Spine1_split
				{
					OFFSET 0.000000 12.508769 -0.658067
					CHANNELS 3 Xrotation Yrotation Zrotation
					JOINT Spine2
					{
						OFFSET 0.000000 12.508769 -0.658067
						CHANNELS 3 Xrotation Yrotation Zrotation
						JOINT Neck_virtual
						{
							OFFSET 0.000000 0.000000 0.000000
							CHANNELS 3 Xrotation Yrotation Zrotation
							JOINT Neck
							{
								OFFSET 0.000000 14.033295 7.520400
								CHANNELS 3 Xrotation Yrotation Zrotation
								JOINT Head
								{
									OFFSET 0.000000 8.198502 5.703100
									CHANNELS 3 Xrotation Yrotation Zrotation
									JOINT HeadTop_End
									{
										OFFSET 0.000000 17.760803 13.332701
										CHANNELS 3 Xrotation Yrotation Zrotation
										End Site
										{
											OFFSET 0 0 0
										}
									}
								}
							}
						}
						JOINT LeftShoulder_virtual
						{
							OFFSET 0.000000 0.000000 0.000000
							CHANNELS 3 Xrotation Yrotation Zrotation
							JOINT LeftShoulder
							{
								OFFSET 6.292450 5.785301 -0.669000
								CHANNELS 3 Xrotation Yrotation Zrotation
								JOINT LeftShoulder_split
								{
									OFFSET 6.292450 5.785301 -0.669000
									CHANNELS 3 Xrotation Yrotation Zrotation
									JOINT LeftArm
									{
										OFFSET 13.907140 -6.093903 1.965100
										CHANNELS 3 Xrotation Yrotation Zrotation
										JOINT LeftForeArm
										{
											OFFSET 34.140198 0.000000 0.000000
											CHANNELS 3 Xrotation Yrotation Zrotation
											JOINT LeftHand
											{
												OFFSET 40.960209 0.000000 0.000000
												CHANNELS 3 Xrotation Yrotation Zrotation
												End Site
												{
													OFFSET 0 0 0
												}
											}
										}
									}
								}
							}
						}
						JOINT RightShoulder_virtual
						{
							OFFSET 0.000000 0.000000 0.000000
							CHANNELS 3 Xrotation Yrotation Zrotation
							JOINT RightShoulder
							{
								OFFSET -6.292450 5.785301 -0.669000
								CHANNELS 3 Xrotation Yrotation Zrotation
								JOINT RightShoulder_split
								{
									OFFSET -6.292450 5.785301 -0.669000
									CHANNELS 3 Xrotation Yrotation Zrotation
									JOINT RightArm
									{
										OFFSET -13.907140 -6.093903 1.965100
										CHANNELS 3 Xrotation Yrotation Zrotation
										JOINT RightForeArm
										{
											OFFSET -34.140198 0.000000 0.000000
											CHANNELS 3 Xrotation Yrotation Zrotation
											JOINT RightHand
											{
												OFFSET -40.960209 0.000000 0.000000
												CHANNELS 3 Xrotation Yrotation Zrotation
												End Site
												{
													OFFSET 0 0 0
												}
											}
										}
									}
								}
							}
						}
					}
				}
			}
		}
	}
}
MOTION
Frames: 10
Frame Time: 0.03333333
-0.545051 101.138252 1.007118 0.000000 0.000000 0.000000 0.948514 -62.083278 4.594493 -30.651597 7.039593 25.763754 39.090443 -4.191367 -7.988621 -7.148981 -2.679087 -8.527546 -0.991511 0.260099 0.437899 0.000000 0.000000 0.000000 -0.487973 -61.035472 4.055148 -27.216743 -9.901445 -25.656955 38.726233 3.753481 -6.085914 -13.739775 3.031847 21.625229 1.543145 -0.097808 0.629351 0.000000 0.000000 0.000000 -0.008186 -59.831323 4.011109 11.754849 0.804221 -2.637880 9.009679 -0.820252 -5.500542 1.121606 -4.303992 1.284537 0.000000 0.000000 0.000000 10.020141 -0.527112 -5.502908 -18.564620 19.354789 13.165839 -3.599305 26.863144 -2.401056 0.000000 0.000000 0.000000 9.668333 -0.850883 -5.049449 -5.830691 -10.818107 -4.336868 -0.309879 -3.365359 -1.320311 -18.309039 8.295611 -31.386765 3.855043 -38.205421 2.735915 0.000000 0.000000 0.000000 9.222293 -0.893015 -5.496812 -6.015685 7.246266 3.370659 0.945097 0.080075 2.048782 -40.179315 -18.630453 34.281754 -161.314547 64.766941 161.786281 0.000000 0.000000 0.000000 
-0.682924 101.058655 1.501240 0.000000 0.000000 0.000000 0.798287 -62.385145 4.361687 -30.582312 7.412032 26.065277 39.322120 -4.440042 -7.967066 -7.363653 -2.715057 -8.475217 -0.979208 0.282748 0.412293 0.000000 0.000000 0.000000 -0.562708 -60.920588 3.846345 -26.911422 -9.791031 -25.423511 39.001715 3.528889 -6.019142 -13.745772 2.872932 21.278023 1.353903 -0.087204 0.663264 0.000000 0.000000 0.000000 -0.460680 -59.571202 3.468484 11.626603 0.715861 -2.689230 8.760125 -0.812697 -5.572468 0.936655 -3.306435 1.050582 0.000000 0.000000 0.000000 9.246153 -0.519440 -5.605710 -17.945926 19.149825 12.693703 -2.507723 26.237390 -1.933968 0.000000 0.000000 0.000000 9.401875 -0.863517 -5.228214 -5.716230 -10.687349 -4.635449 -0.649419 -2.538144 -1.667635 -18.429087 7.694489 -31.581961 4.082490 -38.541521 2.933442 0.000000 0.000000 0.000000 9.048571 -0.840208 -5.623739 -5.968122 7.269968 3.872590 1.172643 0.444045 2.768526 -38.749938 -18.681339 35.148270 -159.329298 66.012084 159.855755 0.000000 0.000000 0.000000 
-0.949197 101.203888 1.943150 0.000000 0.000000 0.000000 0.298240 -62.654821 3.565184 -30.520553 8.111565 26.607591 39.556293 -4.818389 -7.884345 -7.698728 -2.778159 -8.471260 -0.862534 0.345938 0.285454 0.000000 0.000000 0.000000 -0.955464 -60.884211 3.094839 -26.198007 -10.017314 -24.951470 38.852892 3.317632 -5.913780 -13.531384 2.711260 21.006959 0.922170 -0.085091 0.624074 0.000000 0.000000 0.000000 -0.968495 -59.256016 2.585889 11.271119 0.744123 -2.628973 8.103797 -0.651680 -5.712926 0.678666 -2.437802 0.735222 0.000000 0.000000 0.000000 7.989932 -0.333530 -5.812040 -16.744571 18.604016 12.310692 0.059307 23.782102 -0.389918 0.000000 0.000000 0.000000 8.737558 -0.744392 -5.475976 -5.693956 -10.451188 -4.980591 -1.415392 -1.737131 -1.848756 -18.589121 6.768381 -32.185357 3.294786 -39.088725 2.325114 0.000000 0.000000 0.000000 8.448803 -0.593798 -5.751595 -5.872392 7.067067 4.710219 1.421721 0.853777 2.413241 -37.024386 -17.870896 36.534552 -155.692537 68.413360 156.232081 0.000000 0.000000 0.000000 
-1.216812 101.584930 2.165562 0.000000 0.000000 0.000000 -0.395613 -62.773017 2.419948 -30.389400 8.968893 27.216774 39.477872 -5.229603 -7.760272 -7.915170 -2.865910 -8.598827 -0.867052 0.433975 0.117833 0.000000 0.000000 0.000000 -1.449804 -60.922378 2.070403 -25.124987 -10.560612 -24.288897 37.994539 3.157119 -5.790944 -13.141916 2.581842 20.797207 0.404475 -0.082483 0.545962 0.000000 0.000000 0.000000 -1.402198 -59.011147 1.600291 10.739138 0.897668 -2.483625 7.175220 -0.358107 -5.874500 0.471262 -1.542194 0.462599 0.000000 0.000000 0.000000 6.530727 0.025582 -6.030630 -15.421304 17.938944 11.988244 3.324330 20.268965 1.884106 0.000000 0.000000 0.000000 7.781626 -0.491350 -5.723949 -5.745722 -10.118125 -5.257730 -2.347023 -1.062944 -1.796499 -18.705636 5.704872 -33.054806 1.916731 -40.105757 1.181558 0.000000 0.000000 0.000000 7.507713 -0.213803 -5.846109 -5.688433 6.618966 5.596083 1.660160 0.969438 1.406113 -35.550277 -16.440078 38.270189 -150.182391 71.217652 150.679191 0.000000 0.000000 0.000000 
-1.396582 102.201294 2.267506 0.000000 0.000000 0.000000 -1.112530 -62.808528 1.190489 -30.137575 9.854687 27.753292 38.861929 -5.551445 -7.643946 -7.752999 -2.984645 -8.782223 -1.095869 0.515589 -0.020914 0.000000 0.000000 0.000000 -1.889584 -60.994955 1.040040 -23.846094 -11.359419 -23.513129 36.386545 3.060112 -5.665938 -12.537715 2.521393 20.642020 0.073919 -0.072583 0.474978 0.000000 0.000000 0.000000 -1.566604 -58.930469 0.791725 10.133817 1.153239 -2.323035 6.137416 0.006905 -5.994712 0.429354 -1.031099 0.505468 0.000000 0.000000 0.000000 5.157498 0.463696 -6.187154 -14.713609 17.390102 11.541891 6.094908 16.695924 4.294790 0.000000 0.000000 0.000000 6.719874 -0.155476 -5.864227 -5.814030 -9.722854 -5.248210 -3.227241 -0.339510 -1.926467 -18.681836 4.796929 -34.062536 0.570162 -41.392726 0.004463 0.000000 0.000000 0.000000 6.395997 0.221933 -5.854756 -5.455019 6.033121 6.214748 1.828535 1.040920 0.553477 -34.465971 -14.708872 40.233100 -142.627792 73.905106 143.014244 0.000000 0.000000 0.000000 
-1.435941 103.008453 2.210232 0.000000 0.000000 0.000000 -1.553295 -62.846060 0.240089 -29.797233 10.625440 28.134393 37.696425 -5.716278 -7.565356 -7.121355 -3.128038 -8.905861 -1.341851 0.566346 -0.119496 0.000000 0.000000 0.000000 -2.135474 -61.161926 0.219248 -22.632616 -12.285602 -22.716260 34.231231 3.015665 -5.531214 -11.698021 2.520937 20.566669 0.054395 -0.063147 0.452882 0.000000 0.000000 0.000000 -1.479404 -59.155312 0.267529 9.596727 1.443098 -2.212600 5.153489 0.371598 -6.030689 0.316207 -1.016830 0.954091 0.000000 0.000000 0.000000 4.142217 0.896291 -6.208558 -15.191903 17.208800 10.845783 7.436428 14.111110 5.950781 0.000000 0.000000 0.000000 5.783027 0.186314 -5.844555 -5.848247 -9.259755 -4.777124 -3.784758 0.405063 -2.156345 -18.483071 3.957535 -35.227862 -0.132033 -42.738068 -0.717871 0.000000 0.000000 0.000000 5.334897 0.612883 -5.775288 -5.199015 5.444567 6.355728 2.012503 1.180474 0.105056 -33.830303 -13.102327 42.220306 -133.286634 76.085084 133.512180 0.000000 0.000000 0.000000 
-1.320089 103.834045 1.984066 0.000000 0.000000 0.000000 -1.728379 -62.985013 -0.378935 -29.438276 11.314412 28.462465 36.231077 -5.783082 -7.551236 -6.179508 -3.306609 -8.894688 -1.456614 0.580171 -0.165147 0.000000 0.000000 0.000000 -2.236523 -61.462892 -0.322706 -21.739898 -13.136592 -21.990672 32.027498 3.054730 -5.415271 -10.746815 2.597996 20.544579 0.197282 -0.055418 0.462598 0.000000 0.000000 0.000000 -1.309900 -59.537338 -0.040539 9.238327 1.724216 -2.200130 4.411574 0.680510 -5.971918 0.239765 -1.313299 1.324838 0.000000 0.000000 0.000000 3.627034 1.221809 -6.079599 -17.052493 17.548808 9.879536 7.042987 13.034470 6.221405 0.000000 0.000000 0.000000 5.125406 0.482834 -5.669717 -5.839228 -8.763206 -3.931104 -4.110064 1.021975 -2.632559 -18.151518 2.976003 -36.391132 0.218158 -43.918717 -0.621487 0.000000 0.000000 0.000000 4.499309 0.900652 -5.634433 -4.944779 5.088101 5.952525 2.195921 1.234126 0.317403 -33.479770 -11.965890 43.950819 -122.552609 77.656621 122.582457 0.000000 0.000000 0.000000 
-1.046878 104.482780 1.698185 0.000000 0.000000 0.000000 -1.776681 -63.227567 -0.777838 -29.209410 11.916752 28.829351 34.821090 -5.804267 -7.600256 -5.314637 -3.494758 -8.693983 -1.355947 0.565809 -0.160878 0.000000 0.000000 0.000000 -2.345421 -61.871351 -0.723935 -21.308891 -13.758950 -21.373499 30.373670 3.124329 -5.337611 -9.902191 2.689553 20.530358 0.333192 -0.056431 0.475130 0.000000 0.000000 0.000000 -1.217458 -60.023853 -0.306089 9.130094 1.946693 -2.272358 4.029142 0.864686 -5.832564 0.430370 -1.814792 1.505842 0.000000 0.000000 0.000000 3.617981 1.352371 -5.841673 -20.055083 18.384356 8.801257 5.045772 13.558743 5.075645 0.000000 0.000000 0.000000 4.889982 0.658741 -5.383805 -5.771722 -8.292156 -2.775742 -4.327591 1.487212 -3.298588 -17.959069 1.890235 -37.330713 1.437959 -44.435838 0.263719 0.000000 0.000000 0.000000 4.124558 1.042027 -5.458173 -4.729170 5.159245 5.051957 2.287003 1.363680 0.959712 -33.293812 -11.615366 44.972769 -112.937492 78.577078 112.749655 0.000000 0.000000 0.000000 
-0.638882 104.775177 1.275494 0.000000 0.000000 0.000000 -1.832471 -63.491731 -1.090064 -29.276120 12.318758 29.278999 33.943759 -5.892811 -7.682929 -4.820755 -3.681327 -8.450760 -1.110929 0.537868 -0.112430 0.000000 0.000000 0.000000 -2.613770 -62.162644 -1.179835 -21.322380 -14.019542 -20.852919 29.751604 3.180702 -5.330406 -9.444634 2.705900 20.408306 0.390056 -0.067680 0.472861 0.000000 0.000000 0.000000 -1.488133 -60.558657 -0.776460 9.266262 2.075855 -2.369436 4.040291 0.899108 -5.662474 0.742243 -2.328268 1.482503 0.000000 0.000000 0.000000 4.047624 1.297077 -5.546642 -23.524616 19.565169 7.986598 2.105165 15.427861 2.941396 0.000000 0.000000 0.000000 5.105162 0.704115 -5.076577 -5.664828 -7.917032 -1.523224 -4.305664 1.566876 -3.774869 -18.177804 0.728470 -37.909537 2.992188 -44.251467 1.502228 0.000000 0.000000 0.000000 4.256016 1.020910 -5.304093 -4.536613 5.664077 3.837476 2.349866 1.538890 1.643931 -33.328373 -12.301408 44.924022 -109.295799 78.901703 108.895857 0.000000 0.000000 0.000000 
-0.150817 104.642982 0.796204 0.000000 0.000000 0.000000 -2.157471 -63.688044 -1.586146 -29.676793 12.443497 29.833904 33.982896 -6.129384 -7.779305 -4.748956 -3.874465 -8.270907 -0.957844 0.503387 -0.023780 0.000000 0.000000 0.000000 -3.146852 -62.263308 -1.811549 -21.707384 -13.859045 -20.437516 30.335059 3.227061 -5.422271 -9.483649 2.647121 20.126119 0.382322 -0.080894 0.450529 0.000000 0.000000 0.000000 -2.242845 -60.961651 -1.561098 9.562614 2.117999 -2.410020 4.395418 0.796190 -5.509792 0.978482 -2.595746 1.227235 0.000000 0.000000 0.000000 4.763940 1.109864 -5.280605 -26.720001 20.781173 7.671283 -0.840718 18.235331 0.544410 0.000000 0.000000 0.000000 5.670364 0.643992 -4.820695 -5.558676 -7.788057 -0.482297 -4.262571 1.326989 -4.015432 -18.786391 -0.271716 -37.938125 4.324378 -43.884058 2.629426 0.000000 0.000000 0.000000 4.771802 0.870362 -5.196861 -4.374524 6.574299 2.590072 2.292034 1.619267 2.141680 -33.692951 -14.082117 43.819990 -114.993857 78.665631 114.459436 0.000000 0.000000 0.000000 
